<?xml version="1.0" encoding="utf-8"?>
<!-- Generator: Adobe Illustrator 22.1.0, SVG Export Plug-In . SVG Version: 6.00 Build 0)  -->
<svg version="1.1" id="Layer_1" xmlns="http://www.w3.org/2000/svg" xmlns:xlink="http://www.w3.org/1999/xlink" x="0px" y="0px"
	 viewBox="0 0 291.8 183.7" style="enable-background:new 0 0 291.8 183.7;" xml:space="preserve">
<style type="text/css">
	.st0{fill:#8D8D8D;}
	.st1{fill:#DBDBDB;}
</style>
<g>
	<path class="st0" d="M182.3,92.5c0,50.4-40.8,91.2-91.1,91.2S0,142.9,0,92.5S40.8,1.3,91.1,1.3S182.3,42.1,182.3,92.5z"/>
	<path class="st1" d="M200.6,1.3c-20.4,0-39.3,6.8-54.5,18.2l0.1,0c3,2.9,6.3,4.9,8.8,8.3l-19,0.3c-3,3-5.7,6.3-8.2,9.7h33.4
		c2.5,3.1,4.9,5.7,7,9.1h-46.5c-1.7,2.9-3.3,6-4.7,9.1h56.5c1.5,3.1,2.8,5.5,3.9,8.8h-63.8c-1,3.1-1.9,6.4-2.5,9.6h69
		c0.7,3.2,1.2,6.1,1.6,9h-71.9c-0.3,3-0.5,6-0.5,9.1h72.9c0,3.2-0.2,6.2-0.6,9.1h-71.8c0.3,3.1,0.8,6.1,1.4,9.1h68.9
		c-0.7,3-1.5,5.9-2.6,9h-64c1,3.1,2.1,6.1,3.4,9.1h56.6c-1.6,3.3-3.3,6-5.3,9.1h-46.7c1.8,3.2,3.9,6.2,6.1,9.2l33.6,0.5
		c-2.9,3.4-6.5,5.5-9.9,8.5c0.2,0.1-5.4,0-16.2-0.2c16.6,17.1,39.7,27.8,65.4,27.8c50.4,0,91.2-40.8,91.2-91.2S251,1.3,200.6,1.3z"
		/>
</g>
</svg>
