<?xml version="1.0" encoding="utf-8"?>
<!-- Generator: Adobe Illustrator 22.1.0, SVG Export Plug-In . SVG Version: 6.00 Build 0)  -->
<svg version="1.1"
	 id="svg5487" inkscape:version="0.92.0 r15299" sodipodi:docname="qiwi.svg" xmlns:cc="http://creativecommons.org/ns#" xmlns:dc="http://purl.org/dc/elements/1.1/" xmlns:inkscape="http://www.inkscape.org/namespaces/inkscape" xmlns:rdf="http://www.w3.org/1999/02/22-rdf-syntax-ns#" xmlns:sodipodi="http://sodipodi.sourceforge.net/DTD/sodipodi-0.dtd" xmlns:svg="http://www.w3.org/2000/svg"
	 xmlns="http://www.w3.org/2000/svg" xmlns:xlink="http://www.w3.org/1999/xlink" x="0px" y="0px" viewBox="0 0 111.8 50.8"
	 style="enable-background:new 0 0 111.8 50.8;" xml:space="preserve">
<style type="text/css">
	.st0{fill:#828282;}
</style>
<sodipodi:namedview  bordercolor="#666666" borderopacity="1.0" fit-margin-bottom="0" fit-margin-left="0" fit-margin-right="0" fit-margin-top="0" id="base" inkscape:current-layer="layer1" inkscape:cx="55.386999" inkscape:cy="24.886572" inkscape:document-units="mm" inkscape:pageopacity="0.0" inkscape:pageshadow="2" inkscape:window-height="744" inkscape:window-maximized="1" inkscape:window-width="1280" inkscape:window-x="-4" inkscape:window-y="-4" inkscape:zoom="7.2399661" pagecolor="#ffffff" showgrid="false" units="px">
	</sodipodi:namedview>
<g id="layer1" transform="translate(-48.845523,-338.5318)" inkscape:groupmode="layer" inkscape:label="Layer 1">
	<g id="g5493" transform="matrix(0.26458333,0,0,0.26458333,48.943684,337.05093)">
		<path id="path5491" inkscape:connector-curvature="0" class="st0" d="M297.5,70.9v61.4c0,0.9-0.7,1.7-1.6,1.7c0,0-0.1,0-0.1,0
			h-12.5c-0.9,0-1.7-0.7-1.7-1.6c0,0,0-0.1,0-0.1V70.9c0-0.9,0.7-1.7,1.6-1.7c0,0,0.1,0,0.1,0h12.5
			C296.7,69.2,297.5,69.9,297.5,70.9C297.5,70.9,297.5,70.9,297.5,70.9z M395.3,69.2c0.5,0,1.1,0.2,1.7,0.7c0.4,0.4,0.4,1,0.2,1.5
			l-20.7,61.5c-0.3,0.7-0.9,1.1-1.6,1.1h-11.2c-0.7,0-1.3-0.4-1.6-1.1l-12-35.9l-12,35.9c-0.3,0.7-0.9,1.1-1.6,1.1h-11.2
			c-0.7,0-1.3-0.4-1.6-1.1l-20.7-61.5c-0.1-0.5-0.1-1,0.2-1.5c0.2-0.5,0.9-0.7,1.3-0.7h14c0.7,0,1.3,0.5,1.6,1.2l11.1,36.4
			l12.2-36.4c0.3-0.7,0.9-1.1,1.6-1.1h9.8c0.7,0,1.3,0.4,1.6,1.1l12.2,36.4l11.1-36.4c0.2-0.7,0.8-1.2,1.6-1.2H395.3L395.3,69.2z
			 M416.4,69.2c0.9,0,1.6,0.7,1.7,1.7v61.4c0,0.9-0.7,1.7-1.6,1.7c0,0-0.1,0-0.1,0h-12.5c-0.9,0-1.7-0.7-1.7-1.6c0,0,0-0.1,0-0.1
			V70.9c0-0.9,0.7-1.7,1.6-1.7c0,0,0.1,0,0.1,0H416.4z M274.3,131.8c0.7,0.9,0.1,2.1-1,2.1H258c-0.6,0-1.2-0.3-1.6-0.7l-2.6-3.2
			c-5.4,3.4-11.7,5.5-18.4,5.5c-18.7,0-33.9-15.2-33.9-33.9s15.2-33.9,33.9-33.9c18.7,0,33.9,15.2,33.9,33.9c0,6.7-1.9,13-5.4,18.4
			L274.3,131.8L274.3,131.8z M146.2,125.9c3.2,1.2,4.4,6,4.6,8c0.5,3.8-0.6,5.2-1.8,5.2c-1.2,0-2.9-1.5-4.7-4.4
			c-1.8-2.9-2.6-6.2-1.6-7.9C143.3,125.8,144.6,125.3,146.2,125.9L146.2,125.9z M127.7,139.7c1.9,0,4.1,0.9,6.1,2.6
			c3.8,3.2,4.9,6.8,2.9,9.5c-1.1,1.3-2.9,2.2-5,2.2s-4.3-0.7-5.7-2.1c-3.4-2.9-4.4-7.8-2.2-10.5C124.7,140.3,126,139.7,127.7,139.7z
			 M85.2,174.8c-46.2,0-83.7-37.5-83.7-83.7S39,7.5,85.2,7.5c46.2,0,83.7,37.5,83.7,83.7c0,15.7-4.4,30.4-11.8,42.9
			c-0.2,0.4-0.9,0.2-1-0.2c-2.9-20.5-15.4-31.9-33.7-35.3c-1.6-0.2-1.8-1.2,0.2-1.5c5.6-0.5,13.5-0.4,17.6,0.4
			c0.2-2.1,0.4-4.3,0.4-6.4c0-30.5-24.8-55.3-55.3-55.3C54.8,35.7,30,60.5,30,91s24.8,55.3,55.3,55.3h2.6c-0.9-4.9-1.2-9.9-1.1-15
			c0.1-3.4,0.9-3.9,2.3-1.2c7.7,13.3,18.6,25.2,40,29.9c17.5,3.9,35,8.4,53.9,32.3c1.7,2.1-0.9,4.3-2.8,2.6
			c-19.2-17-36.7-22.6-52.7-22.6C109.6,172.5,97.5,174.8,85.2,174.8L85.2,174.8z M243.9,118.2l-6.7-8.1c-0.7-0.9-0.1-2.2,1-2.2h14.1
			c0.7-1.9,1.1-4.1,1.1-6.3c0-10.1-7.5-18.8-17.9-18.8c-10.3,0-17.9,8.8-17.9,18.8s7.5,18.7,17.9,18.7
			C238.4,120.4,241.3,119.5,243.9,118.2z"/>
	</g>
</g>
</svg>
