<svg xmlns="http://www.w3.org/2000/svg" width="16px" height="16px">
    <path fill="rgb(0, 0, 0)" d="M15.895,2.757 L14.667,3.982 L12.004,1.340 L13.242,0.105 C13.394,-0.047 13.655,-0.032 13.825,0.139 L15.861,2.174 C16.032,2.344 16.047,2.605 15.895,2.757 ZM7.932,10.705 L5.169,11.468 C5.169,11.468 4.703,11.661 4.516,11.475 C4.360,11.315 4.508,10.928 4.508,10.928 L5.287,8.045 L10.996,2.346 L13.659,4.988 L7.932,10.705 ZM1.778,2.667 L1.778,14.222 L13.333,14.222 L13.333,10.667 L15.111,8.889 L15.111,13.333 C15.111,14.806 13.917,16.000 12.444,16.000 L2.667,16.000 C1.194,16.000 -0.000,14.806 -0.000,13.333 L-0.000,3.555 C-0.000,2.083 1.194,0.889 2.667,0.889 L7.111,0.889 L5.333,2.667 L1.778,2.667 Z"/>
</svg>