<svg xmlns="http://www.w3.org/2000/svg" width="16px" height="16px">
    <path fill="rgb(129, 129, 129)" d="M12.444,16.000 L2.666,16.000 C1.194,16.000 -0.000,14.806 -0.000,13.333 L-0.000,3.555 C-0.000,2.083 1.194,0.889 2.666,0.889 L10.111,0.889 L8.333,2.667 L1.778,2.667 L1.778,14.222 L13.333,14.222 L13.333,9.666 L15.111,7.888 L15.111,13.333 C15.111,14.806 13.917,16.000 12.444,16.000 ZM8.765,10.704 C8.612,10.857 8.419,10.934 8.221,10.971 C8.187,11.021 8.166,11.077 8.121,11.121 C7.731,11.512 7.098,11.512 6.707,11.121 L3.879,8.293 C3.488,7.902 3.488,7.269 3.879,6.878 C4.269,6.488 4.902,6.488 5.293,6.878 L7.459,9.044 L13.235,2.296 C13.640,1.890 14.298,1.890 14.704,2.296 C15.110,2.702 15.110,3.360 14.704,3.765 L8.765,10.704 Z"/>
</svg>